<svg id="Filled" height="100" viewBox="0 0 512 512" width="100" xmlns="http://www.w3.org/2000/svg"><path d="m128 152v16l13.72 274.4a48 48 0 0 0 47.94 45.6h132.68a48 48 0 0 0 47.94-45.6l13.72-274.4v-16z" fill="#d9dbdd"/><path d="m232 160h48v88h-48z" fill="#fdd14b"/><path d="m232 24h48v128h-48z" fill="#fdd14b"/><path d="m380.8 232-10.52 210.4a48 48 0 0 1 -47.94 45.6h-132.68a48 48 0 0 1 -47.94-45.6l-10.52-210.4z" fill="#fae8d8"/><path d="m120 136h272a16 16 0 0 1 16 16v16a0 0 0 0 1 0 0h-304a0 0 0 0 1 0 0v-16a16 16 0 0 1 16-16z" fill="#93573d"/><g fill="#ab6647"><circle cx="192" cy="440" r="16"/><circle cx="216" cy="384" r="16"/><circle cx="296" cy="384" r="16"/><circle cx="256" cy="440" r="16"/><circle cx="320" cy="440" r="16"/></g><path d="m392 128h-104v-104a8 8 0 0 0 -8-8h-48a8 8 0 0 0 -8 8v104h-104a24.027 24.027 0 0 0 -24 24v16a8 8 0 0 0 8 8h16.39l13.339 266.8a55.96 55.96 0 0 0 55.931 53.2h132.68a55.96 55.96 0 0 0 55.931-53.2l13.339-266.8h16.39a8 8 0 0 0 8-8v-16a24.028 24.028 0 0 0 -24-24zm-152-96h32v96h-32zm0 192v-48h32v48zm-16 0h-85.19l-2.4-48h87.59zm138.29 218a39.969 39.969 0 0 1 -39.95 38h-132.68a39.97 39.97 0 0 1 -39.95-38l-10.1-202h232.78zm10.9-218h-85.19v-48h87.59zm26.81-64h-288v-8a8.009 8.009 0 0 1 8-8h272a8.009 8.009 0 0 1 8 8z"/><path d="m192 416a24 24 0 1 0 24 24 24.027 24.027 0 0 0 -24-24zm0 32a8 8 0 1 1 8-8 8.009 8.009 0 0 1 -8 8z"/><path d="m240 384a24 24 0 1 0 -24 24 24.027 24.027 0 0 0 24-24zm-24 8a8 8 0 1 1 8-8 8.009 8.009 0 0 1 -8 8z"/><path d="m296 408a24 24 0 1 0 -24-24 24.028 24.028 0 0 0 24 24zm0-32a8 8 0 1 1 -8 8 8.009 8.009 0 0 1 8-8z"/><path d="m256 416a24 24 0 1 0 24 24 24.027 24.027 0 0 0 -24-24zm0 32a8 8 0 1 1 8-8 8.009 8.009 0 0 1 -8 8z"/><path d="m320 416a24 24 0 1 0 24 24 24.028 24.028 0 0 0 -24-24zm0 32a8 8 0 1 1 8-8 8.009 8.009 0 0 1 -8 8z"/></svg>