<svg id="Capa_1" enable-background="new 0 0 512 512" height="100" viewBox="0 0 512 512" width="100" xmlns="http://www.w3.org/2000/svg"><g><g><path d="m497 241h15v-150h-361l-15 30-15-30h-121v150h15c8.401 0 15 6.599 15 15s-6.599 15-15 15h-15v150h121l15-30 15 30h361v-150h-15c-8.401 0-15-6.599-15-15s6.599-15 15-15z" fill="#ff5959"/></g><path d="m316 421h196v-150h-15c-8.401 0-15-6.599-15-15s6.599-15 15-15h15v-150h-196z" fill="#e63a57"/><g id="Coupon_1_"><path d="m256 151c-24.814 0-45 20.186-45 45s20.186 45 45 45 45-20.186 45-45-20.186-45-45-45zm0 60c-8.271 0-15-6.729-15-15s6.729-15 15-15 15 6.729 15 15-6.729 15-15 15z" fill="#f3f5f9"/><path d="m376 271c-24.814 0-45 20.186-45 45s20.186 45 45 45 45-20.186 45-45-20.186-45-45-45zm0 60c-8.271 0-15-6.729-15-15s6.729-15 15-15 15 6.729 15 15-6.729 15-15 15z" fill="#e1e6f0"/><g><path d="m216.149 241.002h199.702v29.997h-199.702z" fill="#f3f5f9" transform="matrix(.707 -.707 .707 .707 -88.465 298.426)"/></g><g><path d="m121 361h30v60h-30z" fill="#54548c"/></g><g><path d="m121 271h30v60h-30z" fill="#54548c"/></g><g><path d="m121 181h30v60h-30z" fill="#54548c"/></g><g><path d="m121 91h30v60h-30z" fill="#54548c"/></g></g><path d="m316 277.211 81.211-81.211-21.211-21.211-60 60z" fill="#e1e6f0"/></g></svg>