<svg height="100" viewBox="0 0 64 64" width="100" xmlns="http://www.w3.org/2000/svg"><g id="Filled_outline" data-name="Filled outline"><path d="m33 19a2.985 2.985 0 0 0 -4.08-2.792 4.98 4.98 0 0 0 -9.84 0 2.985 2.985 0 0 0 -4.08 2.792c0 1 4 13 4 13h11s3-12.718 3-13z" fill="#69e15b"/><path d="m38 44s-5.048-.1-3-8 0-14 5-13c4.043.808 9.072 4.078 6 10s.192 11.987-8 11z" fill="#cccbbc"/><path d="m38.421 8-1.432 1.516a6 6 0 0 0 .011 8.484l1.993-2c2.343-2.343 1.771-5.657-.572-8z" fill="#8ec13f"/><path d="m46.993 16.588-1.493 1.412a6.02 6.02 0 0 1 -8.5 0l1.993-2c2.343-2.343 5.657-1.755 8 .588z" fill="#55b56a"/><path d="m30.964 19.5h7.071v2h-7.071z" fill="#51a262" transform="matrix(.707 -.707 .707 .707 -4.391 30.399)"/><path d="m44.052 42s-5.048-1.1-3-9 0-14 5-13c4.043.808 9.072 4.078 6 10s.191 12.987-8 12z" fill="#f4f4e6"/><path d="m5.5 12.964h2v7.071h-2z" fill="#ba5008" transform="matrix(.707 -.707 .707 .707 -9.763 9.429)"/><path d="m4.5 16.964h2v7.071h-2z" fill="#ba5008" transform="matrix(.707 -.707 .707 .707 -12.884 9.893)"/><path d="m7 25 5 5 6-2-9.013-9.025z" fill="#e97424"/><path d="m21 30.996-.008 1.004h-7l-2-2 6-2z" fill="#f9bb4b"/><path d="m10.586 23h2.828v2h-2.828z" fill="#394d5c" transform="matrix(.707 -.707 .707 .707 -13.455 15.515)"/><ellipse cx="26" cy="32" fill="#ffe4b3" rx="5" ry="4"/><ellipse cx="31" cy="32" fill="#ffcf83" rx="5" ry="4"/><g fill="#55b56a"><path d="m22 19h-2a2 2 0 0 0 -2-2v-2a4 4 0 0 1 4 4z"/><path d="m28 19h-2a4 4 0 0 1 4-4v2a2 2 0 0 0 -2 2z"/><path d="m20 21h2v2h-2z"/><path d="m25 23h2v2h-2z"/></g><path d="m9 32h46v18h-46z" fill="#cfdfe8"/><path d="m3 32h6v4h-6z" fill="#394d5c"/><path d="m55 32h6v4h-6z" fill="#394d5c"/><path d="m7 50h50v6h-50z" fill="#7d8d9c"/><path d="m16 47h-4v-6h2v4h2z" fill="#f4f4e6"/><path d="m50 45h2v2h-2z" fill="#f4f4e6"/><path d="m46 45h2v2h-2z" fill="#f4f4e6"/><path d="m61 31h-8.309c.081-.182.158-.368.247-.54 1.556-3 1.1-5.255.45-6.617-1.326-2.767-4.559-4.3-7.141-4.823-.118-.024-.221-.027-.335-.044.093-.083.188-.161.277-.25l1.492-1.411a1 1 0 0 0 .019-1.434 7.069 7.069 0 0 0 -6.314-2.269 7.048 7.048 0 0 0 -2.259-6.319.972.972 0 0 0 -.721-.293 1 1 0 0 0 -.713.313l-1.411 1.5a7 7 0 0 0 -.64 9.134l-1.764 1.765a3.729 3.729 0 0 0 .122-.712 4 4 0 0 0 -4-3.978v-.022c-.067 0-.129.016-.2.019s-.1-.007-.157 0a5.979 5.979 0 0 0 -11.3 0c-.054 0-.105.005-.159 0s-.118-.019-.184-.019v.022a3.991 3.991 0 0 0 -4 3.978c0 .339.128 1.048 1.333 4.915l-5.639-5.646a.585.585 0 0 0 -.049-.038l-4.938-4.939-1.414 1.415 4.549 4.548-.542 1.633-3.6-3.6-1.407 1.419 4.307 4.308-.55 1.672a1 1 0 0 0 .243 1.02l5.285 5.293h-8.578a1 1 0 0 0 -1 1v4a1 1 0 0 0 1 1h5v12h-1a1 1 0 0 0 -1 1v6a1 1 0 0 0 1 1h50a1 1 0 0 0 1-1v-6a1 1 0 0 0 -1-1h-1v-12h5a1 1 0 0 0 1-1v-4a1 1 0 0 0 -1-1zm-9.415-6.292a5.272 5.272 0 0 1 -.424 4.834 13.126 13.126 0 0 0 -.625 1.458h-8.036c.345-1.887.517-3.644.651-5.1.068-.734.13-1.415.209-2.037.132-1.075.357-2.362.923-2.77a2.074 2.074 0 0 1 1.567-.112c2.113.419 4.727 1.619 5.735 3.727zm-6.08-8.088-.71.672a5.022 5.022 0 0 1 -6.311.636l1.216-1.221c1.788-1.789 4.067-1.381 5.805-.087zm-7.789-6.42.674-.713c1.288 1.736 1.688 4.012-.105 5.805l-1.212 1.216a5 5 0 0 1 .647-6.312zm-4.667 13.165 4.007-4.008a7.007 7.007 0 0 0 4.2 1.4 7.09 7.09 0 0 0 .848-.057 6.715 6.715 0 0 0 -.533 1.677 13.4 13.4 0 0 0 -1.371-.357 3.821 3.821 0 0 0 -3.17.479c-1.4 1.042-1.631 3.083-1.891 5.892a6.4 6.4 0 0 0 -2.958-1.286c.351-1.517.638-2.747.868-3.74zm8.241 1.035c-.043.418-.085.851-.127 1.312a51.9 51.9 0 0 1 -.7 5.284h-3.576c.083-.744.15-1.455.211-2.12.209-2.27.389-4.23 1.124-4.778a2.056 2.056 0 0 1 1.577-.123 11.362 11.362 0 0 1 1.491.425zm-6.539 6.6h-7.508a3.394 3.394 0 0 1 1.679-1.553 4.941 4.941 0 0 1 2.078-.447 4.11 4.11 0 0 1 3.751 2zm-16.646-13.99c.048 0 .095.009.142.014a2.276 2.276 0 0 1 .476.12h.025a2 2 0 0 1 1.252 1.856h2a4 4 0 0 0 -1.761-3.313 3.976 3.976 0 0 1 7.522 0 4 4 0 0 0 -1.761 3.313h2a2 2 0 0 1 1.252-1.852h.025a2.255 2.255 0 0 1 .474-.119c.043-.006.086-.011.13-.013a1.958 1.958 0 0 1 2.119 1.916c-.082.435-.612 2.778-1.865 8.125a6.974 6.974 0 0 0 -1.634.408 7.034 7.034 0 0 0 -2.501-.465 6.315 6.315 0 0 0 -5.145 2.44l-2.448-2.448c-1.548-4.821-2.359-7.523-2.407-7.992a1.96 1.96 0 0 1 2.105-1.99zm8.091 12a4.632 4.632 0 0 0 -1.062 1.99h-2.888a4.083 4.083 0 0 1 3.754-2c.066 0 .131.008.2.01zm-6.609 1.99h-5.181l-.561-.561 3.88-1.294zm-11.444-6.272 1.285-3.9 2.161 2.172-1.3 1.3 1.414 1.415 1.3-1.3 3.145 3.149-3.88 1.293zm1.857 8.272h44v16h-44zm-6 2v-2h4v2zm52 20h-48v-4h48zm4-20h-4v-2h4z"/><path d="m20 21h2v2h-2z"/><path d="m25 23h2v2h-2z"/><path d="m14 41h-2v6h4v-2h-2z"/><path d="m50 45h2v2h-2z"/><path d="m46 45h2v2h-2z"/></g></svg>